<svg height="400" style='style="outline: 5px solid #800000;"' viewBox="0 0 400 400" width="400" xmlns="http://www.w3.org/2000/svg">
<rect fill="#ffffff" height="400" width="400" x="0" y="0"/>
<path d="M200,200 L200,480 L200,200 L200,200 L200,-80 L200,520 L200,200 L-120,200 L240,200 L240,200 L240,200 L520,200 L200,200 L200,160 L200,160 L200,160 L200,-80 L200,480 L200,200 L200,200 L400,200 L400,200 L400,200 L560,200 L-160,200 L280,200 L320,200 L360,200 L680,200 L200,200 L200,40 L200,-280 L200,440 L200,200 L520,200 L200,200 L200,200 L440,200 L-160,200 L560,200 L120,200 L-200,200 L400,200 L400,200 L400,360 L400,720 L400,-40 L400,240 L400,600 L400,-40 L400,200 L400,200 L400,520 L400,200 L400,200 L400,-80 L400,480 L400,-120 L400,400 L400,400 L440,400 L200,400 L200,120 L200,-120 L200,240" fill="none" stroke="#2f2f2f" stroke-opacity="0.9" stroke-width="15"/>
<rect fill="#ffffff" fill-opacity="0.0" height="400" stroke="#cccccc" stroke-width="45" width="400" x="0" y="0"/>
</svg>